<svg xmlns="http://www.w3.org/2000/svg" xmlns:xlink="http://www.w3.org/1999/xlink" width="200" zoomAndPan="magnify" viewBox="0 0 150 149.999998" height="200" preserveAspectRatio="xMidYMid meet" version="1.0"><defs><g/></defs><rect x="-15" width="180" fill="#ffffff" y="-15" height="179.999997" fill-opacity="1"/><rect x="-15" width="180" fill="#ffffff" y="-15" height="179.999997" fill-opacity="1"/><g fill="#000000" fill-opacity="1"><g transform="translate(33.916297, 129.434236)"><g><path d="M 3.179688 -1.058594 L 3.179688 0 L 31.808594 0 L 31.808594 -1.058594 C 22.691406 -1.058594 22.054688 -8.589844 22.054688 -29.476562 L 22.054688 -52.058594 C 22.054688 -57.042969 23.960938 -61.390625 29.476562 -61.390625 C 37.003906 -61.390625 42.410156 -52.058594 55.347656 -52.058594 C 63.722656 -52.058594 68.917969 -57.46875 68.917969 -63.722656 L 67.859375 -63.722656 C 67.859375 -60.011719 64.042969 -57.679688 60.011719 -57.679688 C 50.679688 -57.679688 44.851562 -64.253906 34.351562 -64.253906 C 27.992188 -64.253906 23.328125 -60.859375 22.054688 -57.996094 L 22.054688 -104.96875 L 39.546875 -104.96875 C 63.933594 -104.96875 77.929688 -99.242188 77.929688 -92.140625 L 77.929688 -91.714844 L 78.992188 -91.714844 L 78.992188 -106.027344 L 3.179688 -106.027344 L 3.179688 -104.96875 C 12.300781 -104.96875 12.933594 -97.441406 12.933594 -76.550781 L 12.933594 -29.476562 C 12.933594 -8.589844 12.300781 -1.058594 3.179688 -1.058594 Z M 3.179688 -1.058594 "/></g></g></g></svg>